<svg id="Layer_1" data-name="Layer 1" xmlns="http://www.w3.org/2000/svg" viewBox="0 0 86.21 24.8"><defs><style>.cls-1{fill:#3e3e3e;}.cls-2{fill:#ff450d;}.cls-3{fill:#FFFFFF;}</style></defs><title>moved_by_efficiency</title><path class="cls-1" d="M4.34,0h3L9.2,7.82h.14L13.92,0h3L14.91,11.64H12.52l1.34-7.58h-.1L9.42,11.58H7.8L6.12,4H6L4.68,11.64H2.29Z"/><path class="cls-1" d="M30.89,0l1.26,8.84h.1L36.63,0h2.73L33.3,11.64H30.13L28.16,0Z"/><path class="cls-1" d="M37.68,11.64,39.73,0h7.84l-.35,2H41.84L41.35,4.8h5l-.35,2H41L40.5,9.61h5.4l-.36,2Z"/><path class="cls-1" d="M50.58,11.64H46.46L48.51,0h4.16a5.44,5.44,0,0,1,2.9.7,3.73,3.73,0,0,1,1.6,2,6.16,6.16,0,0,1,.13,3.12,7.63,7.63,0,0,1-1.23,3.12,6.16,6.16,0,0,1-2.32,2A7.07,7.07,0,0,1,50.58,11.64ZM49.29,9.53h1.56a4.4,4.4,0,0,0,1.91-.39A3.23,3.23,0,0,0,54.1,7.93a5.8,5.8,0,0,0,.75-2.12,4.76,4.76,0,0,0,0-2.11,1.92,1.92,0,0,0-.91-1.21,3.62,3.62,0,0,0-1.76-.38H50.6Z"/><path class="cls-1" d="M59.76,11.64,61.81,0h4.66a4.88,4.88,0,0,1,2.07.38,2.24,2.24,0,0,1,1.11,1A2.57,2.57,0,0,1,69.8,3a2.92,2.92,0,0,1-.48,1.2,3.1,3.1,0,0,1-.89.84,3.71,3.71,0,0,1-1.17.46l0,.12A2.28,2.28,0,0,1,68.42,6a2.09,2.09,0,0,1,.78,1,2.66,2.66,0,0,1,.1,1.48,3.56,3.56,0,0,1-.75,1.65A4.06,4.06,0,0,1,67,11.22a5.64,5.64,0,0,1-2.27.42Zm3.65-6.77h1.82a2.34,2.34,0,0,0,.93-.18,1.89,1.89,0,0,0,.72-.51,1.57,1.57,0,0,0,.37-.79,1.1,1.1,0,0,0-.27-1A1.59,1.59,0,0,0,65.79,2H63.92Zm-.84,4.76h2a2.69,2.69,0,0,0,1.57-.4,1.55,1.55,0,0,0,.65-1.05,1.44,1.44,0,0,0-.08-.86,1.25,1.25,0,0,0-.56-.58,2.06,2.06,0,0,0-1-.21H63.12Z"/><path class="cls-1" d="M70.68,0h2.75L75.2,5h.11l3.54-5h2.76L76,7.52l-.73,4.12H72.87l.72-4.12Z"/><path class="cls-2" d="M0,24.64,2.05,13H9.89l-.36,2H4.15L3.67,17.8h5l-.35,2h-5l-.49,2.78h5.4l-.36,2Z"/><path class="cls-2" d="M8.78,24.64,10.83,13h7.7l-.35,2H12.93l-.49,2.77h4.74l-.36,2H12.08l-.84,4.81Z"/><path class="cls-2" d="M17.11,24.64,19.16,13h7.71l-.36,2H21.27l-.49,2.77h4.73l-.36,2H20.42l-.85,4.81Z"/><path class="cls-2" d="M30,13,27.91,24.64H25.44L27.5,13Z"/><path class="cls-2" d="M40.51,17.07H38a2.13,2.13,0,0,0-.13-.86,1.62,1.62,0,0,0-.42-.64,1.84,1.84,0,0,0-.69-.41,2.58,2.58,0,0,0-.9-.14,3.23,3.23,0,0,0-1.65.44A3.68,3.68,0,0,0,33,16.76a5.69,5.69,0,0,0-.73,2.06,4.87,4.87,0,0,0,0,2.09,2.23,2.23,0,0,0,.82,1.28,2.39,2.39,0,0,0,1.47.43,3.24,3.24,0,0,0,.94-.13,3,3,0,0,0,.82-.39,2.73,2.73,0,0,0,.66-.61,2.88,2.88,0,0,0,.45-.83h2.49a5.26,5.26,0,0,1-.76,1.54,5.87,5.87,0,0,1-1.26,1.33,6.13,6.13,0,0,1-1.69.92,6.33,6.33,0,0,1-2.07.34,4.82,4.82,0,0,1-2.66-.71,3.86,3.86,0,0,1-1.57-2,6.34,6.34,0,0,1-.14-3.23A7.72,7.72,0,0,1,31,15.58a6.48,6.48,0,0,1,2.3-2,6.13,6.13,0,0,1,2.88-.7,5.49,5.49,0,0,1,1.83.29,3.64,3.64,0,0,1,1.39.82,3.33,3.33,0,0,1,.86,1.33A4.43,4.43,0,0,1,40.51,17.07Z"/><path class="cls-2" d="M44.43,13l-2,11.64H39.92L42,13Z"/><path class="cls-2" d="M43.38,24.64,45.44,13h7.84l-.36,2H47.54l-.49,2.77h5l-.36,2h-5l-.49,2.78h5.41l-.36,2Z"/><path class="cls-2" d="M63.94,13l-2,11.64H59.77L56,17.31h-.09l-1.29,7.33H52.16L54.21,13h2.16l3.73,7.32h.11L61.5,13Z"/><path class="cls-2" d="M74.5,17.07H72a2.13,2.13,0,0,0-.13-.86,1.62,1.62,0,0,0-.42-.64,1.84,1.84,0,0,0-.69-.41,2.58,2.58,0,0,0-.9-.14,3.24,3.24,0,0,0-1.66.44A3.66,3.66,0,0,0,67,16.76a5.89,5.89,0,0,0-.74,2.06,5,5,0,0,0,0,2.09A2.26,2.26,0,0,0,67,22.19a2.45,2.45,0,0,0,1.48.43,3.24,3.24,0,0,0,.94-.13,3,3,0,0,0,.82-.39,2.73,2.73,0,0,0,.66-.61,2.88,2.88,0,0,0,.45-.83h2.48a5,5,0,0,1-.75,1.54,5.87,5.87,0,0,1-1.26,1.33,6,6,0,0,1-1.7.92,6.22,6.22,0,0,1-2.06.34,4.82,4.82,0,0,1-2.66-.71,3.86,3.86,0,0,1-1.57-2,6.34,6.34,0,0,1-.14-3.23A7.72,7.72,0,0,1,65,15.58a6.48,6.48,0,0,1,2.3-2,6.13,6.13,0,0,1,2.88-.7,5.49,5.49,0,0,1,1.83.29,3.64,3.64,0,0,1,1.39.82,3.33,3.33,0,0,1,.86,1.33A4.43,4.43,0,0,1,74.5,17.07Z"/><path class="cls-2" d="M75.28,13H78l1.77,5h.12l3.53-5h2.76l-5.57,7.52-.73,4.12H77.47l.73-4.12Z"/><circle class="cls-2" cx="22.46" cy="5.82" r="5.82"/><path class="cls-3" d="M20.09,6.73h2.09l-.93,4.78,3.57-7.33H23.05L24.2.25A6.32,6.32,0,0,0,21.53.07Z"/></svg>